<?xml version="1.0" standalone="no"?>
<!DOCTYPE svg PUBLIC "-//W3C//DTD SVG 20010904//EN" "http://www.w3.org/TR/2001/REC-SVG-20010904/DTD/svg10.dtd">
<svg version="1.0" xmlns="http://www.w3.org/2000/svg" width="300.000000pt" height="300.000000pt" viewBox="-30 -30 360.000000 360.000000" preserveAspectRatio="xMidYMid meet">

    <g transform="translate(0.000000,300.000000) scale(0.100000,-0.100000)" fill="#EF2C30" stroke="none">
        <path d="M1345 2989 c-327 -34 -638 -178 -877 -408 -213 -203 -347 -434 -419
-717 -146 -580 72 -1201 550 -1559 472 -355 1110 -399 1627 -114 585 323 886
1008 729 1658 -102 420 -372 768 -756 975 -250 135 -562 195 -854 165z m421
-524 c552 -159 858 -724 687 -1270 -101 -319 -350 -559 -688 -661 -83 -26
-103 -28 -265 -28 -162 0 -182 2 -265 28 -176 53 -307 129 -432 249 -171 164
-284 402 -300 629 l-6 88 250 0 250 0 12 -74 c44 -271 295 -458 561 -417 217
33 388 204 421 421 41 266 -146 517 -417 561 l-74 12 0 250 0 250 88 -6 c48
-4 128 -18 178 -32z" />
    </g>
</svg>